<svg width="200" height="150" viewBox="0 0 200 150" fill="none" xmlns="http://www.w3.org/2000/svg">
<rect width="200" height="150" fill="#E0E0E0"/>
<path d="M170 130H30C24.4772 130 20 125.523 20 120V30C20 24.4772 24.4772 20 30 20H170C175.523 20 180 24.4772 180 30V120C180 125.523 175.523 130 170 130ZM40 50C40 44.4772 44.4772 40 50 40C55.5228 40 60 44.4772 60 50C60 55.5228 55.5228 60 50 60C44.4772 60 40 55.5228 40 50ZM160 110L130 70L100 100L70 60L40 100V110H160Z" fill="#A0A0A0"/>
<text x="50%" y="50%" dominant-baseline="middle" text-anchor="middle" font-family="sans-serif" font-size="20px" fill="#707070">Image</text>
</svg>
